<svg width="20" height="20" viewBox="0 0 20 20" fill="none" xmlns="http://www.w3.org/2000/svg">
<path d="M10 5.19249C7.33986 5.19249 5.19299 7.33937 5.19299 9.99953C5.19299 12.6597 7.33986 14.8066 10 14.8066C12.6602 14.8066 14.807 12.6597 14.807 9.99953C14.807 7.33937 12.6602 5.19249 10 5.19249ZM10 13.1237C8.27971 13.1237 6.8758 11.7198 6.8758 9.99953C6.8758 8.27921 8.27971 6.87531 10 6.87531C11.7203 6.87531 13.1242 8.27921 13.1242 9.99953C13.1242 11.7198 11.7203 13.1237 10 13.1237ZM15.0039 3.87531C14.3828 3.87531 13.8813 4.37687 13.8813 4.99796C13.8813 5.61906 14.3828 6.12062 15.0039 6.12062C15.625 6.12062 16.1266 5.6214 16.1266 4.99796C16.1268 4.85048 16.0979 4.70441 16.0415 4.56812C15.9851 4.43183 15.9025 4.308 15.7982 4.20371C15.6939 4.09943 15.5701 4.01674 15.4338 3.96039C15.2975 3.90403 15.1514 3.87512 15.0039 3.87531ZM19.3703 9.99953C19.3703 8.70578 19.382 7.42374 19.3094 6.13234C19.2367 4.63234 18.8946 3.30109 17.7977 2.20421C16.6985 1.10499 15.3695 0.76515 13.8695 0.692494C12.5758 0.619838 11.2938 0.631557 10.0024 0.631557C8.70861 0.631557 7.42658 0.619838 6.13518 0.692494C4.63518 0.76515 3.30393 1.10734 2.20705 2.20421C1.10783 3.30343 0.767988 4.63234 0.695332 6.13234C0.622676 7.42609 0.634395 8.70812 0.634395 9.99953C0.634395 11.2909 0.622676 12.5753 0.695332 13.8667C0.767988 15.3667 1.11018 16.698 2.20705 17.7948C3.30627 18.8941 4.63518 19.2339 6.13518 19.3066C7.42893 19.3792 8.71096 19.3675 10.0024 19.3675C11.2961 19.3675 12.5781 19.3792 13.8695 19.3066C15.3695 19.2339 16.7008 18.8917 17.7977 17.7948C18.8969 16.6956 19.2367 15.3667 19.3094 13.8667C19.3844 12.5753 19.3703 11.2933 19.3703 9.99953ZM17.3078 15.5261C17.1367 15.9527 16.9305 16.2714 16.6 16.5995C16.2695 16.93 15.9531 17.1362 15.5266 17.3073C14.2938 17.7972 11.3664 17.687 10 17.687C8.63361 17.687 5.70393 17.7972 4.47111 17.3097C4.04455 17.1386 3.7258 16.9323 3.39768 16.6019C3.06721 16.2714 2.86096 15.955 2.68986 15.5284C2.20236 14.2933 2.31252 11.3659 2.31252 9.99953C2.31252 8.63312 2.20236 5.70343 2.68986 4.47062C2.86096 4.04406 3.06721 3.72531 3.39768 3.39718C3.72814 3.06906 4.04455 2.86046 4.47111 2.68937C5.70393 2.20187 8.63361 2.31203 10 2.31203C11.3664 2.31203 14.2961 2.20187 15.5289 2.68937C15.9555 2.86046 16.2742 3.06671 16.6024 3.39718C16.9328 3.72765 17.1391 4.04406 17.3102 4.47062C17.7977 5.70343 17.6875 8.63312 17.6875 9.99953C17.6875 11.3659 17.7977 14.2933 17.3078 15.5261Z" fill="white"/>
</svg>
